Coordinates
version=1
nRows=17
nColumns=40
inDegrees=yes

Units are S.I. units (second, meters, Newtons, ...)
If the header above contains a line with 'inDegrees', this indicates whether rotational values are in degrees (yes) or radians (no).

endheader
time	pelvis_tilt	pelvis_list	pelvis_rotation	pelvis_tx	pelvis_ty	pelvis_tz	hip_flexion_r	hip_adduction_r	hip_rotation_r	knee_angle_r	knee_angle_r_beta	ankle_angle_r	subtalar_angle_r	mtp_angle_r	hip_flexion_l	hip_adduction_l	hip_rotation_l	knee_angle_l	knee_angle_l_beta	ankle_angle_l	subtalar_angle_l	mtp_angle_l	lumbar_extension	lumbar_bending	lumbar_rotation	arm_flex_r	arm_add_r	arm_rot_r	elbow_flex_r	pro_sup_r	wrist_flex_r	wrist_dev_r	arm_flex_l	arm_add_l	arm_rot_l	elbow_flex_l	pro_sup_l	wrist_flex_l	wrist_dev_l
      0.48000000	     -2.06352901	      0.91070355	     -8.17542180	     -0.84811878	      1.00357914	      0.23781880	     20.42716711	     -6.44875561	     -4.52292602	     57.72108400	      1.00742296	      0.36597242	      0.00000000	      0.00000000	      5.07331459	      2.96256917	    -16.17619109	     10.36394847	      0.18088502	      0.18424844	      0.00000000	      0.00000000	     -8.95675248	     -3.44407524	      1.38030601	    -11.76035225	     -0.88021851	    -10.63703051	     60.80568385	     88.28861742	     26.96873979	     28.54641603	     -2.13564230	     -6.17772295	    -12.77271458	     62.54813152	     89.32959057	     27.68693333	     31.36691421
      0.49000000	     -2.14406969	      0.86033386	     -8.02956896	     -0.84172365	      1.00341989	      0.23746816	     21.17129195	     -6.14469097	     -4.55898642	     56.33765391	      0.98327755	      0.80376087	      0.00000000	      0.00000000	      4.70139209	      3.00071053	    -16.16015314	     10.25491051	      0.17898195	      0.38712781	      0.00000000	      0.00000000	     -8.95203313	     -3.37028701	      1.21358152	    -11.78508171	     -0.85579027	    -10.61579605	     60.79979538	     88.29937863	     26.97029401	     28.55662249	     -1.62047427	     -6.31994590	    -12.51497690	     63.17066334	     89.31116619	     27.64010887	     31.24706263
      0.50000000	     -2.01942578	      0.24215818	     -7.45725105	     -0.83526792	      1.00371039	      0.23656338	     21.34352337	     -5.44750897	     -5.28719207	     54.55491912	      0.95216296	      1.15654683	      0.00000000	      0.00000000	      4.09312029	      2.48502500	    -15.61397472	     10.28765813	      0.17955351	      0.96372825	      0.00000000	      0.00000000	     -9.31293098	     -2.63565723	      0.76678044	    -11.78404884	     -0.90915416	    -10.67981107	     60.86533724	     88.30474539	     27.00960655	     28.50476695	     -0.98259119	     -6.42241615	    -12.01665942	     63.64973603	     89.30523228	     27.00308034	     30.75907336
      0.51000000	     -2.09991445	      0.08936847	     -7.27943725	     -0.82885427	      1.00345287	      0.23629827	     21.95381047	     -5.04175787	     -5.44552448	     52.88078168	      0.92294375	      1.57340672	      0.00000000	      0.00000000	      3.71959259	      2.40117523	    -15.54664988	     10.20571134	      0.17812327	      1.25384899	      0.00000000	      0.00000000	     -9.32301267	     -2.44737826	      0.58609564	    -11.77592315	     -0.88467442	    -10.70259599	     60.77394591	     88.31824606	     27.02111680	     28.51879610	     -0.47904119	     -6.59991080	    -11.58812657	     64.22873547	     89.29150222	     26.84935266	     30.55473859
      0.52000000	     -1.91509532	     -0.30836666	     -6.79981990	     -0.82230881	      1.00359867	      0.23545585	     22.05891605	     -4.57119857	     -6.06456274	     50.87355279	      0.88791100	      1.65457085	      0.00000000	      0.00000000	      3.08268334	      2.11263674	    -15.07794639	     10.23583241	      0.17864898	      1.72004895	      0.00000000	      0.00000000	     -9.70315892	     -1.94221280	      0.27582606	    -11.84884986	     -0.86653077	    -10.91637392	     60.90644303	     88.32497472	     27.08037559	     28.48953232	      0.16283219	     -6.68121425	    -10.94563422	     64.67957203	     89.28699897	     26.01538737	     30.00473838
      0.53000000	     -2.04647408	     -0.21443814	     -6.74857435	     -0.81594078	      1.00300189	      0.23535259	     22.75428719	     -4.39800725	     -6.12996359	     49.06320034	      0.85631439	      1.79160010	      0.00000000	      0.00000000	      2.81279885	      2.27196617	    -15.10080445	     10.18777130	      0.17781015	      1.98412141	      0.00000000	      0.00000000	     -9.65301659	     -2.01749615	      0.17892378	    -11.87752795	     -0.78052042	    -10.95582974	     60.88275800	     88.32767975	     27.07609813	     28.50903021	      0.60552185	     -6.80316260	    -10.62707941	     65.29860146	     89.27809856	     25.99765088	     29.90673802
      0.54000000	     -1.88900160	     -0.79436461	     -6.23559639	     -0.80926131	      1.00305948	      0.23475339	     22.70624056	     -3.73208262	     -6.97480335	     46.69454562	      0.81497356	      1.62955055	      0.00000000	      0.00000000	      2.19147633	      1.74977385	    -14.58575044	     10.26094675	      0.17908731	      2.61243062	      0.00000000	      0.00000000	     -9.98110433	     -1.33190358	     -0.10507502	    -11.95522318	     -0.74788799	    -11.22668951	     60.94627351	     88.33036364	     27.11388615	     28.46378642	      1.22067976	     -6.90773315	     -9.88295264	     65.67568517	     89.27362324	     25.36618587	     29.39973714
      0.55000000	     -1.95072947	     -0.92770339	     -6.09982252	     -0.80261797	      1.00253995	      0.23455696	     23.09428096	     -3.36626779	     -7.31126465	     44.47775258	      0.77628323	      1.48227192	      0.00000000	      0.00000000	      1.81692829	      1.66787594	    -14.49394244	     10.24393622	      0.17879042	      2.93768028	      0.00000000	      0.00000000	     -9.97238067	     -1.13610467	     -0.21584737	    -11.99885032	     -0.71299974	    -11.32519111	     60.85657773	     88.34083472	     27.12185102	     28.48054424	      1.64690217	     -7.00101047	     -9.33480535	     66.14596520	     89.26723184	     25.14816711	     29.20874172
      0.56000000	     -1.77314602	     -1.15461620	     -5.75521713	     -0.79594203	      1.00230766	      0.23411678	     23.08844451	     -3.02687818	     -7.98218954	     42.05361826	      0.73397410	      1.17316736	      0.00000000	      0.00000000	      1.18789380	      1.51718629	    -14.14726652	     10.24385587	      0.17878901	      3.40633340	      0.00000000	      0.00000000	    -10.30052115	     -0.83042115	     -0.41565374	    -12.07822249	     -0.61629554	    -11.62760318	     60.94251234	     88.34603802	     27.12952581	     28.46267577	      2.18228333	     -7.07258190	     -8.66805064	     66.59263139	     89.26458299	     24.64298607	     28.87465420
      0.57000000	     -1.79900138	     -1.29991544	     -5.55225475	     -0.78920684	      1.00169857	      0.23389754	     23.30364499	     -2.66582568	     -8.47256288	     39.55776349	      0.69041322	      0.67516745	      0.00000000	      0.00000000	      0.77483749	      1.41672538	    -14.00497732	     10.24007542	      0.17872303	      3.79883616	      0.00000000	      0.00000000	    -10.34662759	     -0.60641355	     -0.56298193	    -12.14714129	     -0.56506797	    -11.76861526	     60.92617140	     88.34710228	     27.13391145	     28.46763427	      2.58769457	     -7.11959238	     -8.10315372	     67.01419013	     89.26158324	     24.42155469	     28.71102573
      0.58000000	     -1.66662036	     -1.44860132	     -5.29803064	     -0.78235506	      1.00125410	      0.23369355	     23.26050197	     -2.35118586	     -9.18857503	     36.91779434	      0.64433706	      0.13393629	      0.00000000	      0.00000000	      0.18487157	      1.32753520	    -13.70795103	     10.24066181	      0.17873327	      4.21369545	      0.00000000	      0.00000000	    -10.58761163	     -0.39634280	     -0.71398059	    -12.20493666	     -0.46427497	    -12.01198300	     60.90233729	     88.35632595	     27.13041695	     28.46795639	      3.01202287	     -7.18202801	     -7.46876066	     67.45663752	     89.25933507	     24.14017310	     28.51887393
      0.59000000	     -1.63585426	     -1.54897982	     -5.09090338	     -0.77558593	      1.00055479	      0.23372930	     23.32172554	     -2.01541767	     -9.80441504	     34.22495043	      0.59733807	     -0.58273368	      0.00000000	      0.00000000	     -0.28781477	      1.25668359	    -13.52565932	     10.23332978	      0.17860530	      4.60698429	      0.00000000	      0.00000000	    -10.69846228	     -0.24344808	     -0.87756837	    -12.26106494	     -0.36048013	    -12.16218928	     60.88526174	     88.36086973	     27.13368043	     28.47341816	      3.38569405	     -7.24263911	     -6.90555072	     67.84491897	     89.25728307	     23.98233486	     28.40718540
      0.60000000	     -1.64126257	     -1.58839262	     -4.88151581	     -0.76868349	      0.99973245	      0.23366238	     23.38010294	     -1.72332698	    -10.36775587	     31.45259326	      0.54895131	     -1.41645690	      0.00000000	      0.00000000	     -0.72368769	      1.25202707	    -13.37697694	     10.23100675	      0.17856475	      4.97507770	      0.00000000	      0.00000000	    -10.75067930	     -0.12851872	     -1.06136192	    -12.31233678	     -0.27921585	    -12.28734553	     60.83391116	     88.37016298	     27.13655298	     28.48073301	      3.69890027	     -7.26419545	     -6.33271993	     68.22808315	     89.25517372	     23.91056372	     28.33803814
      0.61000000	     -1.43201320	     -1.72010710	     -4.58446135	     -0.76171905	      0.99912353	      0.23368877	     23.11538901	     -1.36457958	    -11.14934699	     28.56969678	      0.49863528	     -2.25055716	      0.00000000	      0.00000000	     -1.38945478	      1.14979604	    -13.04412471	     10.25928437	      0.17905829	      5.42131940	      0.00000000	      0.00000000	    -11.06649316	      0.06113703	     -1.26969854	    -12.35800788	     -0.15173730	    -12.50784774	     60.83513547	     88.37943252	     27.15446525	     28.47127709	      4.05439522	     -7.31259602	     -5.70801494	     68.57945070	     89.25183131	     23.76534136	     28.23105628
      0.62000000	     -1.43796094	     -1.74791194	     -4.37267694	     -0.75474898	      0.99809345	      0.23387785	     23.10795753	     -1.02120926	    -11.63850674	     25.71065396	      0.44873556	     -3.25481971	      0.00000000	      0.00000000	     -1.81508771	      1.12764725	    -12.90858450	     10.29261640	      0.17964004	      5.81872103	      0.00000000	      0.00000000	    -11.10570077	      0.13949750	     -1.44180603	    -12.42848626	     -0.04599864	    -12.61706507	     60.78460200	     88.39059136	     27.17878678	     28.47850548	      4.32502982	     -7.33653178	     -5.13530190	     68.89577972	     89.24593349	     23.72141885	     28.19246235
      0.63000000	     -1.31782271	     -1.77881725	     -4.07985397	     -0.74771265	      0.99715758	      0.23403366	     22.91130897	     -0.68361364	    -12.10921133	     22.80765842	      0.39806873	     -4.18164601	      0.00000000	      0.00000000	     -2.36970598	      1.10190909	    -12.68601987	     10.34318018	      0.18052255	      6.25796742	      0.00000000	      0.00000000	    -11.30262120	      0.23234963	     -1.66834775	    -12.47786595	      0.09466552	    -12.79834431	     60.75022962	     88.40211783	     27.22496835	     28.47024311	      4.61577618	     -7.36941748	     -4.49541388	     69.18055393	     89.24309311	     23.67007983	     28.14300114
      0.64000000	     -1.42841535	     -1.67331263	     -3.96198773	     -0.74075845	      0.99580709	      0.23454456	     23.02053641	     -0.37990192	    -12.23407363	     20.00962930	      0.34923391	     -5.21387473	      0.00000000	      0.00000000	     -2.65809190	      1.19371799	    -12.59022681	     10.42618860	      0.18197132	      6.62387503	      0.00000000	      0.00000000	    -11.21378114	      0.15447185	     -1.82267616	    -12.49340891	      0.22853865	    -12.86697676	     60.60893884	     88.41749451	     27.24950190	     28.48361860	      4.80458797	     -7.42569480	     -3.92095055	     69.43766217	     89.23726340	     23.70724593	     28.14554787
